<svg id="DOT" xmlns="http://www.w3.org/2000/svg" width="32" height="32" viewBox="0 0 32 32">
  <circle id="Ellipse_11" data-name="Ellipse 11" cx="16" cy="16" r="16" fill="#fff"/>
  <g id="Group_3563" data-name="Group 3563" transform="translate(10 7)">
    <path id="Path_8137" data-name="Path 8137" d="M6.456,0A6.482,6.482,0,0,0,0,6.456a6.631,6.631,0,0,0,.34,2.1.923.923,0,0,0,1.136.566.919.919,0,0,0,.549-1.132,4.26,4.26,0,0,1-.251-1.646A4.657,4.657,0,1,1,6.711,11.13s-.906.055-1.357.11a4.686,4.686,0,0,0-.494.1.059.059,0,0,1-.084,0h0a.059.059,0,0,1,0-.072l.14-.765.851-3.828A.885.885,0,1,0,4.036,6.3s-2.024,9.369-2.024,9.454a.851.851,0,0,0,.615,1.034l.015,0h.047a.85.85,0,0,0,1.036-.611.23.23,0,0,0,.005-.023.219.219,0,0,1,0-.042c.025-.11.281-1.357.281-1.357a2.3,2.3,0,0,1,1.9-1.808c.2-.03,1.017-.085,1.017-.085A6.451,6.451,0,0,0,6.456,0Z" fill="#1e1e1e"/>
    <path id="Path_8138" data-name="Path 8138" d="M815.959,2182.972a1.076,1.076,0,0,0-1.272.834c0,.006,0,.011,0,.016a1.071,1.071,0,0,0,.819,1.275h.032a1.054,1.054,0,0,0,1.272-.777s0-.009,0-.013v-.059A1.115,1.115,0,0,0,815.959,2182.972Z" transform="translate(-809.112 -2168.087)" fill="#e6007a"/>
  </g>
</svg>
