<svg xmlns="http://www.w3.org/2000/svg" width="17.458" height="15.679" viewBox="0 0 17.458 15.679">
  <path id="Shape" d="M3.964.225.206,4.308l-.012.014-.005.006-.007.008-.007.008,0,.006-.007.009,0,0-.007.01,0,0-.007.011,0,0L.131,4.4l0,0-.007.011,0,0-.006.011,0,.006L.1,4.449l0,.007,0,.008,0,.009,0,.006-.006.012v0A.815.815,0,0,0,0,4.849a.8.8,0,0,0,.221.557L3.964,9.474a.666.666,0,0,0,1,0,.815.815,0,0,0,0-1.083L2.406,5.615h11.45a.738.738,0,0,0,.7-.766.737.737,0,0,0-.7-.765H2.405L4.96,1.307a.814.814,0,0,0,0-1.082.664.664,0,0,0-1,0Z" transform="translate(12.609 15.679) rotate(-150)" fill="#e6007a"/>
</svg>
