<svg xmlns="http://www.w3.org/2000/svg" width="17.458" height="15.679" viewBox="0 0 17.458 15.679">
  <path id="Shape" d="M3.964,9.473.206,5.39.194,5.377.189,5.371.182,5.363.176,5.355l0-.006L.164,5.34l0,0-.007-.01,0,0L.142,5.31l0,0L.131,5.294l0,0L.122,5.279l0,0L.113,5.265l0-.006L.1,5.249l0-.007,0-.008,0-.009,0-.006L.082,5.207v0A.815.815,0,0,1,0,4.849a.8.8,0,0,1,.221-.557L3.964.224a.666.666,0,0,1,1,0,.815.815,0,0,1,0,1.083L2.406,4.083h11.45a.738.738,0,0,1,.7.766.737.737,0,0,1-.7.765H2.405L4.96,8.391a.814.814,0,0,1,0,1.082.664.664,0,0,1-1,0Z" transform="translate(17.458 8.399) rotate(150)" fill="#0ca564"/>
</svg>
