<svg xmlns="http://www.w3.org/2000/svg" width="20" height="20" viewBox="0 0 20 20">
  <g id="Group_3508" data-name="Group 3508" transform="translate(-0.498)">
    <rect id="Rectangle_440" data-name="Rectangle 440" width="20" height="20" rx="7" transform="translate(0.498)" fill="#0ca564"/>
    <path id="Shape" d="M3.3,7.894.172,4.492l-.01-.011,0,0L.152,4.469.147,4.463l0-.005L.136,4.45l0,0L.127,4.437l0,0L.118,4.425l0,0L.11,4.412l0,0L.1,4.4l0,0L.094,4.387l0,0,0-.008,0-.006,0-.007,0-.008,0,0-.005-.01v0A.68.68,0,0,1,0,4.041a.664.664,0,0,1,.184-.464L3.3.187a.555.555,0,0,1,.83,0,.679.679,0,0,1,0,.9L2.005,3.4h9.541a.615.615,0,0,1,.587.639.614.614,0,0,1-.587.638H2L4.133,6.993a.678.678,0,0,1,0,.9.554.554,0,0,1-.83,0Z" transform="translate(16.694 10.332) rotate(150)" fill="#fff"/>
  </g>
</svg>
