<?xml version="1.0"?>
<svg xmlns="http://www.w3.org/2000/svg" xmlns:xlink="http://www.w3.org/1999/xlink" xmlns:svgjs="http://svgjs.com/svgjs" version="1.1" width="512" height="512" x="0" y="0" viewBox="0 0 24 24" style="enable-background:new 0 0 512 512" xml:space="preserve"><g><g xmlns="http://www.w3.org/2000/svg"><path d="m20.5 20h-12c-1.379 0-2.5-1.122-2.5-2.5v-15c0-1.378 1.121-2.5 2.5-2.5h9.008c.922 0 1.823.374 2.475 1.025l1.992 1.992c.661.662 1.025 1.541 1.025 2.476v12.007c0 1.378-1.121 2.5-2.5 2.5zm-12-19c-.827 0-1.5.673-1.5 1.5v15c0 .827.673 1.5 1.5 1.5h12c.827 0 1.5-.673 1.5-1.5v-12.007c0-.667-.26-1.295-.732-1.768l-1.992-1.992c-.465-.466-1.11-.733-1.768-.733z" fill="#8ba1be" data-original="#000000" style=""/></g><g xmlns="http://www.w3.org/2000/svg"><path d="m15.5 24h-12c-1.379 0-2.5-1.122-2.5-2.5v-16c0-1.378 1.121-2.5 2.5-2.5h1c.276 0 .5.224.5.5s-.224.5-.5.5h-1c-.827 0-1.5.673-1.5 1.5v16c0 .827.673 1.5 1.5 1.5h12c.827 0 1.5-.673 1.5-1.5 0-.276.224-.5.5-.5s.5.224.5.5c0 1.378-1.121 2.5-2.5 2.5z" fill="#8ba1be" data-original="#000000" style=""/></g></g></svg>
