<svg xmlns="http://www.w3.org/2000/svg" width="20" height="20" viewBox="0 0 20 20">
  <g id="pie-chart-02" transform="translate(-2 -2)">
    <path id="c2_pie-chart-02" data-name="c2/pie-chart-02" d="M2.87,6.72,5.908,3.683a7.945,7.945,0,0,1,.83,2L5.7,6.72ZM0,1.105,1.105,0A7.953,7.953,0,0,1,3.09.843L0,3.933Z" transform="translate(13 4.28)" fill="#fff" opacity="0.5"/>
    <path id="c1_pie-chart-02" data-name="c1/pie-chart-02" d="M10,20A10,10,0,1,1,20,10,10.011,10.011,0,0,1,10,20ZM9,2.062A8,8,0,1,0,17.938,11L11,11A2,2,0,0,1,9,9Zm7.338,3.055h0L12.454,9h5.484a8.121,8.121,0,0,0-.2-1.039,7.949,7.949,0,0,0-.831-2,8.058,8.058,0,0,0-.57-.845ZM11,2.062V7.628L14.929,3.7a8.163,8.163,0,0,0-.839-.575A7.946,7.946,0,0,0,11,2.062Z" transform="translate(2 2)" fill="#fff"/>
  </g>
</svg>
