<svg id="Group_3469" data-name="Group 3469" xmlns="http://www.w3.org/2000/svg" width="17.5" height="17.499" viewBox="0 0 17.5 17.499">
  <path id="Shape" d="M4.931,17.5H.75A.751.751,0,0,1,0,16.75V12.568a.755.755,0,0,1,.22-.53L11.461.8a2.721,2.721,0,0,1,3.848,0L16.7,2.19a2.721,2.721,0,0,1,0,3.848L5.462,17.28A.746.746,0,0,1,4.931,17.5Zm8.454-16a1.213,1.213,0,0,0-.864.358L1.5,12.879V16h3.12L15.642,4.979a1.223,1.223,0,0,0,0-1.727L14.249,1.857A1.213,1.213,0,0,0,13.385,1.5Z" fill="#fff"/>
  <path id="Line_11" data-name="Line 11" d="M0,1.061,4.636,5.645,5.7,4.584,1.061,0Z" transform="translate(7.946 3.498)" fill="#fff" opacity="0.5"/>
</svg>
