<svg xmlns="http://www.w3.org/2000/svg" width="27.023" height="27.621" viewBox="0 0 27.023 27.621">
  <g id="FlagUSA" transform="translate(-0.108 -0.366)">
    <circle id="Ellipse_7" data-name="Ellipse 7" cx="13.5" cy="13.5" r="13.5" transform="translate(0.131 0.369)" fill="#f0f0f0"/>
    <g id="Group_3524" data-name="Group 3524" transform="translate(0.482 3.042)">
      <path id="Path_8128" data-name="Path 8128" d="M244.87,192.868H258.6c0-.092.011-.421,0-.827a12.273,12.273,0,0,0-.453-2.824H244.87Z" transform="translate(-231.967 -181.916)" fill="#d80027"/>
      <path id="Path_8129" data-name="Path 8129" d="M244.87,59.3l11.705,0a13.12,13.12,0,0,0-3.286-3.592l-8.419-.063Z" transform="translate(-231.967 -55.652)" fill="#d80027"/>
      <path id="Path_8130" data-name="Path 8130" d="M104.414,459.39a11.541,11.541,0,0,0,7.731-3.062l-15.5.02A11.619,11.619,0,0,0,104.414,459.39Z" transform="translate(-91.229 -434.445)" fill="#d80027"/>
      <path id="Path_8131" data-name="Path 8131" d="M10.32,326.432l22.635.007a11.822,11.822,0,0,0,1.688-3.666l-25.9.064A14.08,14.08,0,0,0,10.32,326.432Z" transform="translate(-8.53 -308.18)" fill="#d80027"/>
    </g>
    <path id="Path_8132" data-name="Path 8132" d="M6.49,2.019s1.245-.049,1.267.167-1.186.862-1.186.862l.453,1.394L5.838,3.58l-1.186.862.219-1.21a13.752,13.752,0,0,0-2.637,3.03h.5l-.848.515q-.176.294-.339.6L2,8.518l-.733-.554c-.167.354-.26.782-.4,1.152l.4,1.223H2.738L1.552,11.2,2,12.594.819,11.732l-.625.486a14.649,14.649,0,0,0-.085,1.776H13.994V0A13.109,13.109,0,0,0,6.49,2.019Zm.534,10.576-1.186-.862-1.186.862L5.105,11.2l-1.186-.862H5.385l.453-1.394.453,1.394H7.757L6.571,11.2ZM6.571,7.123l.453,1.394L5.838,7.656l-1.186.862.453-1.394L3.919,6.262H5.385l.453-1.394.453,1.394H7.757Zm5.473,5.471-1.186-.862-1.186.862.453-1.394-1.186-.862H10.4l.453-1.394.453,1.394h1.466l-1.186.862Zm-.453-5.471.453,1.394-1.186-.862-1.186.862.453-1.394L8.938,6.262H10.4l.453-1.394.453,1.394h1.466Zm0-4.076.453,1.394L10.857,3.58l-1.186.862.453-1.394L8.938,2.185H10.4L10.857.791l.453,1.394h1.466Z" transform="translate(0 0.369)" fill="#0052b4"/>
  </g>
</svg>
