<?xml version="1.0" encoding="utf-8"?>
<!-- Generator: Adobe Illustrator 22.0.1, SVG Export Plug-In . SVG Version: 6.00 Build 0)  -->
<svg version="1.1" id="Layer_1" xmlns="http://www.w3.org/2000/svg" xmlns:xlink="http://www.w3.org/1999/xlink" x="0px" y="0px"
	 viewBox="0 0 21.3 13.1" style="enable-background:new 0 0 21.3 13.1;" xml:space="preserve">
<style type="text/css">
	.st0{fill:#8BA1BE;}
	.st1{fill:#0CA564;}
</style>
<path class="st0" d="M16.5,12.9c-0.3-0.3-0.3-0.7,0-1l2.3-2.3H9.6C9.3,9.6,9,9.3,9,8.8S9.3,8,9.6,8h9.2l-2.3-2.3
	c-0.3-0.3-0.3-0.7,0-1c0.3-0.3,0.7-0.3,1,0l0,0L20.7,8c0.3,0.1,0.6,0.4,0.5,0.8c0,0,0,0,0,0.1c0,0.4-0.2,0.7-0.5,0.8l-3.3,3.3
	C17.2,13.2,16.7,13.2,16.5,12.9C16.5,12.9,16.5,12.9,16.5,12.9L16.5,12.9z"/>
<path class="st1" d="M3.8,8.4L0.2,4.8l0,0h0l0,0l0,0v0l0,0l0,0l0,0l0,0c0,0,0,0,0,0l0,0l0,0l0,0c0,0,0,0,0,0l0,0l0,0v0l0,0v0v0v0v0
	l0,0l0,0C0.1,4.5,0,4.4,0,4.3C0,4.1,0.1,4,0.2,3.8l3.6-3.6c0.3-0.3,0.7-0.3,1,0s0.3,0.7,0,1L2.3,3.6h11c0.4,0,0.7,0.3,0.7,0.7
	S13.7,5,13.3,5h-11l2.5,2.5c0.3,0.3,0.3,0.7,0,1C4.5,8.7,4.1,8.7,3.8,8.4L3.8,8.4z"/>
</svg>
