<svg xmlns="http://www.w3.org/2000/svg" width="21.253" height="13.113" viewBox="0 0 21.253 13.113">
  <g id="line-chart-19" transform="translate(1.075 -3.457)">
    <path id="c1_line-chart-19" data-name="c1/line-chart-19" d="M15.622,14.483a.678.678,0,0,1,0-.958L17.945,11.2H8.755c-.327,0-.591-.365-.591-.815s.265-.815.591-.815h9.19L15.622,7.249a.678.678,0,1,1,.959-.959l3.286,3.286a.755.755,0,0,1,.53.785c0,.019,0,.037,0,.055a.754.754,0,0,1-.53.782l-3.286,3.286a.678.678,0,0,1-.959,0ZM2.962,9.961-.656,6.344l-.012-.013-.005,0L-.68,6.32l-.006-.007,0-.005L-.7,6.3l0,0-.007-.009,0,0a.069.069,0,0,1-.007-.01l0,0-.007-.011,0,0a.094.094,0,0,0-.007-.01l0,0-.005-.009,0-.005-.005-.008,0-.006,0-.007,0-.008,0-.005-.006-.011v0a.67.67,0,0,1-.077-.314.677.677,0,0,1,.212-.493l3.6-3.6a.678.678,0,0,1,.959.96L1.462,5.186H12.485a.678.678,0,0,1,0,1.356H1.461L3.92,9a.678.678,0,1,1-.959.959Z" transform="translate(-0.22 1.889)" fill="#fff"/>
  </g>
</svg>
