<svg id="expand-screen" xmlns="http://www.w3.org/2000/svg" width="16.859" height="16.313" viewBox="0 0 16.859 16.313">
  <g id="c115_arrows" transform="translate(0 0)">
    <path id="Path_8106" data-name="Path 8106" d="M23.679,18.294a.888.888,0,1,0-1.773,0v1.932l-3.577-3.579A.886.886,0,0,0,17.076,17.9l3.56,3.559H18.713a.888.888,0,1,0,0,1.772h4.019a.918.918,0,0,0,.947-.886l-.005-.036a.491.491,0,0,0,.005-.052V18.294Z" transform="translate(-6.82 -6.919)" fill="#fff"/>
    <path id="Path_8107" data-name="Path 8107" d="M5.35,16.647,1.774,20.226V18.294a.913.913,0,0,0-.888-.933A.91.91,0,0,0,0,18.294v3.964c0,.017,0,.035.006.052s0,.023,0,.036a.917.917,0,0,0,.946.886h4.02a.888.888,0,1,0,0-1.772H3.044L6.6,17.9A.887.887,0,0,0,5.35,16.647Z" transform="translate(0 -6.919)" fill="#fff"/>
    <path id="Path_8108" data-name="Path 8108" d="M18.328,7.043l3.577-3.577V5.4a.888.888,0,1,0,1.773,0V1.433a.439.439,0,0,0-.005-.051l.005-.037a.918.918,0,0,0-.946-.886H18.713a.916.916,0,0,0-.946.886.919.919,0,0,0,.946.887h1.923l-3.56,3.559a.885.885,0,0,0,1.252,1.252Z" transform="translate(-6.82 -0.459)" fill="#fff"/>
    <path id="Path_8109" data-name="Path 8109" d="M3.044,2.232H4.967a.919.919,0,0,0,.945-.887A.916.916,0,0,0,4.967.459H.948A.917.917,0,0,0,0,1.345c0,.012,0,.024,0,.037S0,1.415,0,1.433V5.4a.91.91,0,0,0,.886.932A.914.914,0,0,0,1.774,5.4V3.467L5.35,7.043A.886.886,0,1,0,6.6,5.792Z" transform="translate(0 -0.459)" fill="#fff"/>
  </g>
</svg>
