<svg xmlns="http://www.w3.org/2000/svg" width="25" height="23" viewBox="0 0 25 23">
  <path id="c1_wechat" data-name="c1/wechat" d="M21.688,23a1.949,1.949,0,0,1-.768-.162l-2.98-1.32a9.672,9.672,0,0,1-1.131.067,8.125,8.125,0,0,1-7.449-4.279c-.261-.017-.518-.042-.762-.074L4.709,18.991a2.122,2.122,0,0,1-.835.176,2.078,2.078,0,0,1-1.555-.7A2.268,2.268,0,0,1,1.967,16l.7-1.466A8.031,8.031,0,0,1,0,8.661,8.058,8.058,0,0,1,2.949,2.516,10.787,10.787,0,0,1,10,0c5.322,0,9.708,3.6,9.986,8.195A7.017,7.017,0,0,1,25,14.623a6.4,6.4,0,0,1-2.022,4.584l.446.92a2.018,2.018,0,0,1-.317,2.237A1.915,1.915,0,0,1,21.688,23Zm-3.4-4.115h0l.33.147,1.895.838-.683-1.409.866-.631A4.05,4.05,0,0,0,22.5,14.623a3.962,3.962,0,0,0-1.63-3.085,6.415,6.415,0,0,0-3.995-1.316,6.415,6.415,0,0,0-3.995,1.316,3.962,3.962,0,0,0-1.63,3.085c0,2.43,2.489,4.407,5.548,4.407a7.316,7.316,0,0,0,1.13-.089l.356-.056ZM10,2.555A8.356,8.356,0,0,0,4.682,4.368,5.564,5.564,0,0,0,2.5,8.661a5.678,5.678,0,0,0,2.454,4.488,1.294,1.294,0,0,1,.388,1.589l-.709,1.493,3.279-1.483a1.21,1.21,0,0,1,.506-.11,1.234,1.234,0,0,1,.194.015l.138.022v-.052a6.443,6.443,0,0,1,2.4-4.942,8.835,8.835,0,0,1,5.724-2.014c.176,0,.353,0,.527.014a5.975,5.975,0,0,0-2.507-3.635A8.535,8.535,0,0,0,10,2.555Z" fill="#fff"/>
</svg>
