<svg xmlns="http://www.w3.org/2000/svg" width="22" height="16.999" viewBox="0 0 22 16.999">
  <g id="text-column" transform="translate(-3 -5)">
    <path id="c2_text-column" data-name="c2/text-column" d="M1,7A1,1,0,0,1,0,6V5.666a1,1,0,0,1,1-1H9a1,1,0,0,1,1,1V6A1,1,0,0,1,9,7ZM1,2.333a1,1,0,0,1-1-1V1A1,1,0,0,1,1,0H9a1,1,0,0,1,1,1v.333a1,1,0,0,1-1,1Z" transform="translate(15 15)" fill="#fff" opacity="0.5"/>
    <path id="c1_text-column" data-name="c1/text-column" d="M1,17a1,1,0,0,1-1-1v-.428a1,1,0,0,1,1-1H8.778a1,1,0,0,1,1,1V16a1,1,0,0,1-1,1Zm0-4.856a1,1,0,0,1-1-1v-.429a1,1,0,0,1,1-1H8.778a1,1,0,0,1,1,1v.429a1,1,0,0,1-1,1ZM13.222,7.286a1,1,0,0,1-1-1V5.857a1,1,0,0,1,1-1H21a1,1,0,0,1,1,1v.428a1,1,0,0,1-1,1ZM1,7.286a1,1,0,0,1-1-1V5.857a1,1,0,0,1,1-1H8.778a1,1,0,0,1,1,1v.428a1,1,0,0,1-1,1ZM13.222,2.428a1,1,0,0,1-1-1V1a1,1,0,0,1,1-1H21a1,1,0,0,1,1,1v.428a1,1,0,0,1-1,1ZM1,2.428a1,1,0,0,1-1-1V1A1,1,0,0,1,1,0H8.778a1,1,0,0,1,1,1v.428a1,1,0,0,1-1,1Z" transform="translate(3 5)" fill="#fff"/>
  </g>
</svg>
