<?xml version="1.0"?>
<svg xmlns="http://www.w3.org/2000/svg" xmlns:xlink="http://www.w3.org/1999/xlink" xmlns:svgjs="http://svgjs.com/svgjs" version="1.1" width="512" height="512" x="0" y="0" viewBox="0 0 512 512" style="enable-background:new 0 0 512 512" xml:space="preserve"><g>
<g xmlns="http://www.w3.org/2000/svg">
	<g>
		<path d="M419.721,196.465H92.279c-16.414,0-29.767,13.354-29.767,29.767v256c0,16.414,13.354,29.767,29.767,29.767h327.442    c16.414,0,29.767-13.354,29.767-29.767v-256C449.488,209.819,436.135,196.465,419.721,196.465z M413.767,476.279H98.233V232.186    h315.535V476.279z" fill="#ffffff" data-original="#000000" style=""/>
	</g>
</g>
<g xmlns="http://www.w3.org/2000/svg">
	<g>
		<path d="M256,0c-80.426,0-145.86,65.971-145.86,147.051v61.321h35.721v-61.321c0-61.386,49.408-111.33,110.14-111.33    c60.732,0,110.14,49.944,110.14,111.33v61.321h35.721v-61.321C401.861,65.971,336.432,0,256,0z" fill="#ffffff" data-original="#000000" style=""/>
	</g>
</g>
<g xmlns="http://www.w3.org/2000/svg">
	<g>
		<path d="M253.023,333.395c-9.865,0-17.86,7.996-17.86,17.86v41.674c0,9.865,7.996,17.86,17.86,17.86s17.86-7.996,17.86-17.86    v-41.674C270.884,341.391,262.888,333.395,253.023,333.395z" fill="#ffffff" data-original="#000000" style=""/>
	</g>
</g>
<g xmlns="http://www.w3.org/2000/svg">
</g>
<g xmlns="http://www.w3.org/2000/svg">
</g>
<g xmlns="http://www.w3.org/2000/svg">
</g>
<g xmlns="http://www.w3.org/2000/svg">
</g>
<g xmlns="http://www.w3.org/2000/svg">
</g>
<g xmlns="http://www.w3.org/2000/svg">
</g>
<g xmlns="http://www.w3.org/2000/svg">
</g>
<g xmlns="http://www.w3.org/2000/svg">
</g>
<g xmlns="http://www.w3.org/2000/svg">
</g>
<g xmlns="http://www.w3.org/2000/svg">
</g>
<g xmlns="http://www.w3.org/2000/svg">
</g>
<g xmlns="http://www.w3.org/2000/svg">
</g>
<g xmlns="http://www.w3.org/2000/svg">
</g>
<g xmlns="http://www.w3.org/2000/svg">
</g>
<g xmlns="http://www.w3.org/2000/svg">
</g>
</g></svg>
