<?xml version="1.0" encoding="iso-8859-1"?>
<!-- Generator: Adobe Illustrator 19.0.0, SVG Export Plug-In . SVG Version: 6.00 Build 0)  -->
<svg version="1.1" id="Layer_1" xmlns="http://www.w3.org/2000/svg" xmlns:xlink="http://www.w3.org/1999/xlink" x="0px" y="0px"
	 viewBox="0 0 512.084 512.084" style="enable-background:new 0 0 512.084 512.084;" xml:space="preserve">
<g>
	<g>
		<path d="M480.019,287.445c-3.684,2.126-5.274,3.023-7.17,4.016c-107.107,56.169-237.431,10.771-291.324-101.942
			c-24.413-51.093-29.531-108.675-15.532-162.776c4.732-18.288-14.886-33.25-31.271-23.847
			C12.558,72.999-34.895,231.446,27.428,361.76C91.633,496.062,248.263,550.634,377.05,483.108
			c67.074-35.187,115.122-97.774,134.288-171.843C516.076,292.952,496.403,277.988,480.019,287.445z M357.233,445.323
			c-107.116,56.164-237.418,10.765-291.312-101.968C20.615,248.624,43.818,136.317,116.21,69.164
			c-2.989,47.26,5.921,95.014,26.82,138.755c57.781,120.842,190.417,177.132,310.227,137.988
			C432.408,388.322,399.227,423.293,357.233,445.323z"/>
	</g>
</g>
<g>
</g>
<g>
</g>
<g>
</g>
<g>
</g>
<g>
</g>
<g>
</g>
<g>
</g>
<g>
</g>
<g>
</g>
<g>
</g>
<g>
</g>
<g>
</g>
<g>
</g>
<g>
</g>
<g>
</g>
</svg>
