<svg xmlns="http://www.w3.org/2000/svg" width="18.75" height="20" viewBox="0 0 18.75 20">
  <g id="Group_3564" data-name="Group 3564" transform="translate(-3.25 -2)">
    <path id="Shape" d="M6,17v-.5H2.25A2.253,2.253,0,0,1,0,14.25v-.382a2.542,2.542,0,0,1,1.415-2.289A1.247,1.247,0,0,0,2.1,10.572l.446-4.91A6.227,6.227,0,0,1,10.618.286a5.466,5.466,0,0,0-.635,1.377A4.725,4.725,0,0,0,4.045,5.8L3.6,10.708A2.739,2.739,0,0,1,2.089,12.92a1.055,1.055,0,0,0-.589.949v.382A.751.751,0,0,0,2.25,15h13A.751.751,0,0,0,16,14.25v-.382a1.053,1.053,0,0,0-.586-.948A2.739,2.739,0,0,1,13.9,10.708l-.2-2.18a5.473,5.473,0,0,0,1.526.221l.166,1.822a1.26,1.26,0,0,0,.686,1.005,2.547,2.547,0,0,1,1.418,2.29v.382a2.252,2.252,0,0,1-2.25,2.25H11.5V17A2.75,2.75,0,0,1,6,17Zm1.5,0A1.25,1.25,0,0,0,10,17v-.5H7.5ZM15.047,6.744A3.486,3.486,0,0,1,13.5,6.28L13.456,5.8a4.72,4.72,0,0,0-1.519-3.062c-.043-.039-.086-.077-.13-.115A3.509,3.509,0,0,1,12.418,1.2,6.221,6.221,0,0,1,14.95,5.662l.1,1.081v0Z" transform="translate(3.25 2.25)" fill="#fff"/>
    <path id="Shape-2" data-name="Shape" d="M3.5,7A3.5,3.5,0,1,1,7,3.5,3.5,3.5,0,0,1,3.5,7Z" transform="translate(15 2)" fill="#ff6359"/>
  </g>
</svg>
