<svg xmlns="http://www.w3.org/2000/svg" width="20.095" height="19" viewBox="0 0 20.095 19">
  <g id="Group_3563" data-name="Group 3563" transform="translate(-2 -2)">
    <path id="c2_search" data-name="c2/search" d="M0,1.757A9.292,9.292,0,0,0,1.845,0L5.471,3.454a1.2,1.2,0,0,1,0,1.757,1.351,1.351,0,0,1-1.845,0L0,1.757Z" transform="translate(16.242 15.425)" fill="#fff"/>
    <path id="c1_search" data-name="c1/search" d="M9,18a9,9,0,1,1,9-9A9.01,9.01,0,0,1,9,18ZM9.111,2a7,7,0,1,0,7,7A7.008,7.008,0,0,0,9.111,2Z" transform="translate(2 2)" fill="#fff"/>
  </g>
</svg>
