<svg xmlns="http://www.w3.org/2000/svg" width="20" height="20" viewBox="0 0 20 20">
  <g id="Group_3508" data-name="Group 3508" transform="translate(-0.498)">
    <rect id="Rectangle_440" data-name="Rectangle 440" width="20" height="20" rx="7" transform="translate(0.498)" fill="#e6007a"/>
    <path id="Shape" d="M3.3.187.172,3.59.162,3.6l0,0-.006.007-.005.007,0,.005-.006.008,0,0-.006.008,0,0-.006.009,0,0L.11,3.67l0,0L.1,3.682l0,0-.005.009,0,0,0,.008,0,.006,0,.007,0,.008,0,0-.005.01v0a.68.68,0,0,0-.067.3A.664.664,0,0,0,.184,4.5L3.3,7.9a.555.555,0,0,0,.83,0,.679.679,0,0,0,0-.9L2.005,4.679h9.542a.615.615,0,0,0,.587-.639.614.614,0,0,0-.587-.638H2L4.134,1.089a.678.678,0,0,0,0-.9.554.554,0,0,0-.83,0Z" transform="translate(12.653 16.399) rotate(-150)" fill="#fff"/>
  </g>
</svg>
