<svg xmlns="http://www.w3.org/2000/svg" width="17" height="17" viewBox="0 0 17 17">
  <g id="filter-01" transform="translate(-2.17 -2.17)">
    <path id="c2_filter-01" data-name="c2/filter-01" d="M2.5,17a.843.843,0,0,1-.833-.85v-1a2.568,2.568,0,0,1,0-4.81V.85a.833.833,0,1,1,1.666,0v9.5a2.568,2.568,0,0,1,0,4.81v1A.843.843,0,0,1,2.5,17Zm0-5.1a.85.85,0,1,0,.833.85A.843.843,0,0,0,2.5,11.9Z" transform="translate(8.17 2.17)" fill="#fff" opacity="0.5"/>
    <path id="c1_filter-01" data-name="c1/filter-01" d="M14.45,17a.851.851,0,0,1-.85-.85V7.5a2.551,2.551,0,0,1,0-4.81V.85a.85.85,0,1,1,1.7,0V2.7a2.551,2.551,0,0,1,0,4.81V16.15A.851.851,0,0,1,14.45,17Zm0-12.75a.85.85,0,1,0,.85.85A.851.851,0,0,0,14.45,4.25ZM2.55,17a.851.851,0,0,1-.85-.85V10.055a2.552,2.552,0,0,1,0-4.81V.85a.85.85,0,1,1,1.7,0V5.245a2.551,2.551,0,0,1,0,4.81V16.15A.851.851,0,0,1,2.55,17Zm0-10.2a.85.85,0,1,0,.85.85A.851.851,0,0,0,2.55,6.8Z" transform="translate(2.17 2.17)" fill="#fff"/>
  </g>
</svg>
