<svg xmlns="http://www.w3.org/2000/svg" width="21.725" height="20.128" viewBox="0 0 21.725 20.128">
  <g id="star-filled" transform="translate(0.501 0.56)">
    <path id="c2_star-filled" data-name="c2/star-filled" d="M3.435.354a.419.419,0,0,1,.647.236l.6,2.548A1.165,1.165,0,0,1,3.762,4.53,1.261,1.261,0,0,1,2.874,4.4L.534,3.064A.393.393,0,0,1,.5,2.395Z" transform="translate(12.519 14.442)" fill="#fff" stroke="rgba(0,0,0,0)" stroke-width="1" opacity="0.5"/>
    <path id="c1_star-filled" data-name="c1/star-filled" d="M12.345,14.844,5.284,18.861a1.245,1.245,0,0,1-1.62-.432,1.123,1.123,0,0,1-.141-.851L4.81,12.108l-4.4-3.7A1.131,1.131,0,0,1,.3,6.764a1.234,1.234,0,0,1,.8-.391l5.827-.518L9.245.7A1.236,1.236,0,0,1,10.842.1,1.191,1.191,0,0,1,11.478.7l2.315,5.15,5.827.518a1.18,1.18,0,0,1,1.1,1.267,1.145,1.145,0,0,1-.35.715l-6.189,5.211-1.835,1.279Z" transform="translate(0)" fill="#fff" stroke="rgba(0,0,0,0)" stroke-width="1"/>
  </g>
</svg>
