<svg xmlns="http://www.w3.org/2000/svg" width="18" height="18" viewBox="0 0 18 18">
  <g id="sun" transform="translate(-3 -3)">
    <path id="c2_sun" fill="#000" data-name="c2/sun" d="M12.314,13.313a1,1,0,0,1-.707-.292l-.707-.707A1,1,0,1,1,12.314,10.9l.707.706a1,1,0,0,1-.707,1.707ZM1,13.313a1,1,0,0,1-.707-1.707L1,10.9a1,1,0,1,1,1.414,1.414l-.706.707A1,1,0,0,1,1,13.313ZM11.607,2.707A1,1,0,0,1,10.9,1l.707-.707a1,1,0,0,1,1.415,1.415l-.707.706A.994.994,0,0,1,11.607,2.707Zm-9.9,0A.994.994,0,0,1,1,2.414L.292,1.707A1,1,0,0,1,1.707.293L2.414,1a1,1,0,0,1-.707,1.707Z" transform="translate(5.343 5.343)" opacity="0.5"/>
    <path id="c1_sun" fill="#000" data-name="c1/sun" d="M9,18a1,1,0,0,1-1-1V16a1,1,0,1,1,2,0v1A1,1,0,0,1,9,18Zm0-4a5,5,0,1,1,3.535-1.465A4.965,4.965,0,0,1,9,14ZM9,6a3,3,0,1,0,2.121.879A2.98,2.98,0,0,0,9,6Zm8,4H16a1,1,0,1,1,0-2h1a1,1,0,1,1,0,2ZM2,10H1A1,1,0,1,1,1,8H2a1,1,0,1,1,0,2ZM9,3A1,1,0,0,1,8,2V1a1,1,0,1,1,2,0V2A1,1,0,0,1,9,3Z" transform="translate(3 3)"/>
  </g>
</svg>
