<svg xmlns="http://www.w3.org/2000/svg" width="22" height="22" viewBox="0 0 22 22">
  <g id="calendar" transform="translate(-3 -3)">
    <path id="c2_calendar" data-name="c2/calendar" d="M10.08,4a.509.509,0,0,1-.48-.533V1.333A1.271,1.271,0,0,1,10.8,0,1.271,1.271,0,0,1,12,1.333V3.467A.509.509,0,0,1,11.52,4ZM.48,4A.509.509,0,0,1,0,3.467V1.333A1.271,1.271,0,0,1,1.2,0,1.271,1.271,0,0,1,2.4,1.333V3.467A.509.509,0,0,1,1.92,4Z" transform="translate(8 3)" fill="#fff" opacity="0.5"/>
    <path id="c1_calendar" data-name="c1/calendar" d="M18.334,21H3.666A3.69,3.69,0,0,1,0,17.295V.494A.492.492,0,0,1,.488,0H3.422a.246.246,0,0,1,.244.247V2.224a.246.246,0,0,1-.244.247H2.444V3.705H19.556V2.47h-.978a.246.246,0,0,1-.244-.247V.247A.246.246,0,0,1,18.578,0h2.934A.492.492,0,0,1,22,.494v16.8A3.69,3.69,0,0,1,18.334,21ZM2.444,6.177V17.295A1.23,1.23,0,0,0,3.666,18.53H18.334a1.23,1.23,0,0,0,1.222-1.235V6.177Zm14.178,9.881H10.266a.492.492,0,0,1-.488-.494V14.083a.492.492,0,0,1,.488-.495h6.356a.493.493,0,0,1,.489.495v1.482A.492.492,0,0,1,16.622,16.058Zm-8.8,0h-2.2c-.4,0-.734-.221-.734-.494V14.083c0-.273.329-.495.734-.495h2.2c.4,0,.734.222.734.495v1.482C8.556,15.837,8.227,16.058,7.822,16.058Zm8.556-4.941h-2.2c-.4,0-.734-.221-.734-.494V9.141c0-.272.329-.494.734-.494h2.2c.4,0,.734.221.734.494v1.483C17.112,10.9,16.782,11.118,16.378,11.118Zm-4.644,0H5.378a.492.492,0,0,1-.49-.494V9.141a.492.492,0,0,1,.49-.494h6.356a.492.492,0,0,1,.488.494v1.483A.492.492,0,0,1,11.734,11.118ZM13.2,2.47H8.8a.246.246,0,0,1-.244-.247V.247A.246.246,0,0,1,8.8,0h4.4a.246.246,0,0,1,.244.247V2.224A.246.246,0,0,1,13.2,2.47Z" transform="translate(3 4)" fill="#fff"/>
  </g>
</svg>
