<svg xmlns="http://www.w3.org/2000/svg" width="23" height="21" viewBox="0 0 23 21">
  <g id="wallet" transform="translate(0.133 0.488)">
    <path id="c2_wallet" data-name="c2/wallet" d="M1.214,0H3.642a1.214,1.214,0,0,1,0,2.428H1.214A1.214,1.214,0,0,1,1.214,0Z" transform="translate(14.231 10.766)" fill="#fff" opacity="0.5"/>
    <path id="c1_wallet" data-name="c1/wallet" d="M19.55,21H3.45A3.479,3.479,0,0,1,0,17.5V3.5A3.479,3.479,0,0,1,3.45,0h13.8A3.479,3.479,0,0,1,20.7,3.5V4.866a3.5,3.5,0,0,1,2.3,3.3V17.5A3.479,3.479,0,0,1,19.55,21ZM3.45,7A1.16,1.16,0,0,0,2.3,8.167V17.5a1.16,1.16,0,0,0,1.15,1.167h16.1A1.16,1.16,0,0,0,20.7,17.5V8.167A1.16,1.16,0,0,0,19.55,7Zm0-4.667a1.167,1.167,0,0,0,0,2.333H18.4V3.5a1.16,1.16,0,0,0-1.15-1.167Z" transform="translate(-0.133 -0.488)" fill="#fff"/>
  </g>
</svg>
